<svg width="100" height="100" viewBox="0 0 100 100" xmlns="http://www.w3.org/2000/svg">
  <rect width="100" height="100" rx="20" fill="#1DA1F2"/>
  <path d="M75 30.5c-2.4 1.1-5 1.8-7.7 2.2 2.8-1.7 4.9-4.3 5.9-7.4-2.6 1.5-5.4 2.6-8.5 3.2-2.4-2.6-5.9-4.2-9.7-4.2-7.3 0-13.3 5.9-13.3 13.3 0 1 .1 2.1.3 3.1-11-.6-20.9-5.8-27.4-13.8-1.1 2-1.8 4.3-1.8 6.8 0 4.6 2.4 8.7 5.9 11-2.2-.1-4.3-.7-6.1-1.7v.2c0 6.4 4.6 11.8 10.6 13-1.1.3-2.3.5-3.5.5-.9 0-1.7-.1-2.5-.2 1.7 5.2 6.5 9 12.3 9.1-4.5 3.5-10.2 5.6-16.4 5.6-1.1 0-2.1-.1-3.1-.2 5.9 3.8 12.9 6 20.4 6 24.5 0 37.9-20.3 37.9-37.9 0-.6 0-1.2-.1-1.7 2.6-1.9 4.9-4.2 6.7-6.8z" fill="white"/>
</svg>